<?xml version="1.0" encoding="UTF-8" standalone="no"?>
<!-- Created with Inkscape (http://www.inkscape.org/) -->

<svg
   width="81.877518mm"
   height="36.700233mm"
   viewBox="0 0 81.877518 36.700232"
   version="1.1"
   id="svg1"
   xml:space="preserve"
   xmlns="http://www.w3.org/2000/svg"
   xmlns:svg="http://www.w3.org/2000/svg"><defs
     id="defs1" /><g
     id="layer1"
     transform="translate(-63.265087,-95.840466)"><g
       id="g1"
       transform="matrix(0.55121528,0,0,0.55121528,21.885358,19.256688)"><path
         id="path1"
         style="fill:#ffffff;stroke-width:0.046502"
         d="m 176.4643,138.93624 c -3.61654,0 -6.76039,2.3409 -8.40545,5.79965 1.18977,1.52044 2.07019,3.36831 2.53407,5.41737 4.84066,-0.58904 8.62026,-5.38196 8.62026,-11.21702 z m -19.24223,3.22206 c 0,6.22776 4.30816,11.27724 9.62129,11.27724 v 7.25 c 0,0.44304 0.30899,0.80552 0.68696,0.80552 h 1.37462 c 0.37798,0 0.6873,-0.36248 0.6873,-0.80552 v -7.25 c 0,-6.22776 -4.30816,-11.27724 -9.62128,-11.27724 z" /><svg
         x="73.229996"
         y="152.33586"
         style="fill:#ffffff"
         version="1.1"
         id="svg3"
         width="100%"
         height="100%"><path
           d="M 4.62,27 H 1.84 V 0.82 h 2.78 v 6.46 h 13.2 q 1.66,0 2.89,1.21 1.22,1.2 1.22,2.9 v 0 V 27 H 19.14 V 11.39 q 0,-0.54 -0.39,-0.93 -0.39,-0.39 -0.93,-0.39 v 0 H 5.98 q -0.54,0 -0.95,0.39 -0.41,0.39 -0.41,0.93 v 0 z m 40.12,0 H 28.76 q -1.7,0 -2.9,-1.21 -1.21,-1.2 -1.21,-2.9 v 0 -7.14 h 17.27 v -4.36 q 0,-0.54 -0.39,-0.93 -0.39,-0.39 -0.93,-0.39 v 0 H 24.65 V 7.28 H 40.6 q 1.73,0 2.94,1.21 1.2,1.2 1.2,2.9 v 0 z M 28.76,24.21 v 0 H 41.92 V 18.53 H 27.44 v 4.36 q 0,0.54 0.39,0.93 0.39,0.39 0.93,0.39 z M 63.44,27 H 47.46 V 0.82 h 2.79 v 6.46 h 13.19 q 1.7,0 2.91,1.21 1.21,1.2 1.21,2.9 v 0 11.5 q 0,1.7 -1.21,2.9 Q 65.14,27 63.44,27 Z M 51.61,24.21 v 0 h 11.83 q 0.55,0 0.94,-0.39 0.39,-0.39 0.39,-0.93 v 0 -11.5 q 0,-0.54 -0.39,-0.93 -0.39,-0.39 -0.94,-0.39 v 0 H 51.61 q -0.54,0 -0.95,0.39 -0.41,0.39 -0.41,0.93 v 0 11.5 q 0,0.54 0.41,0.93 0.41,0.39 0.95,0.39 z M 85.68,34.82 H 73.37 V 32 h 12.31 q 0.54,0 0.94,-0.39 0.39,-0.39 0.39,-0.94 v 0 V 27 H 73.85 q -1.7,0 -2.91,-1.21 -1.21,-1.2 -1.21,-2.9 v 0 -15.54 h 2.79 v 15.54 q 0,0.54 0.39,0.93 0.39,0.39 0.94,0.39 v 0 h 11.83 q 0.54,0 0.94,-0.39 0.39,-0.39 0.39,-0.93 v 0 -15.54 h 2.78 v 23.32 q 0,1.74 -1.19,2.94 -1.19,1.21 -2.92,1.21 z M 104.72,27 h -7.21 q -1.73,0 -2.92,-1.21 -1.19,-1.2 -1.19,-2.9 v 0 -22.07 h 2.79 v 6.46 h 8.53 v 2.79 h -8.53 v 12.82 q 0,0.54 0.39,0.93 0.39,0.39 0.93,0.39 v 0 h 7.21 z m 22.64,0 h -15.98 q -1.7,0 -2.9,-1.21 -1.21,-1.2 -1.21,-2.9 v 0 -11.5 q 0,-1.7 1.21,-2.9 1.2,-1.21 2.9,-1.21 v 0 h 11.84 q 1.73,0 2.94,1.21 1.2,1.2 1.2,2.9 v 0 7.14 h -17.3 v 4.36 q 0,0.54 0.39,0.93 0.39,0.39 0.93,0.39 v 0 h 15.98 z m -17.3,-15.61 v 4.36 h 14.48 v -4.36 q 0,-0.54 -0.39,-0.93 -0.39,-0.39 -0.93,-0.39 v 0 h -11.84 q -0.54,0 -0.93,0.39 -0.39,0.39 -0.39,0.93 z M 150.38,27 H 134.4 q -1.7,0 -2.9,-1.21 -1.21,-1.2 -1.21,-2.9 v 0 -11.5 q 0,-1.7 1.21,-2.9 1.2,-1.21 2.9,-1.21 v 0 h 11.83 q 1.74,0 2.95,1.21 1.2,1.2 1.2,2.9 v 0 7.14 h -17.3 v 4.36 q 0,0.54 0.39,0.93 0.39,0.39 0.93,0.39 v 0 h 15.98 z m -17.3,-15.61 v 4.36 h 14.48 v -4.36 q 0,-0.54 -0.39,-0.93 -0.39,-0.39 -0.94,-0.39 v 0 H 134.4 q -0.54,0 -0.93,0.39 -0.39,0.39 -0.39,0.93 z"
           id="path2" /></svg><text
         fill="#ffffff"
         font-family="sans-serif"
         font-size="12px"
         x="91.021393"
         y="205.24081"
         id="text3"><tspan
           dy="0"
           x="91.021393"
           id="tspan3">LEARN NEW HABITS</tspan></text></g></g></svg>
